<?xml version="1.0" encoding="UTF-8" standalone="no"?>
<svg
   width="25"
   height="24"
   viewBox="0 0 25 24"
   fill="none"
   version="1.1"
   id="svg10"
   xmlns="http://www.w3.org/2000/svg"
   xmlns:svg="http://www.w3.org/2000/svg">
  <defs
     id="defs14" />
  <path
     id="rect2"
     style="color:#000000;fill:#8696bb;-inkscape-stroke:none"
     d="m 8.625,3 c -1.3688632,0 -2.5,1.1311368 -2.5,2.5 V 7 c -2.1986984,0 -4,1.8013016 -4,4 v 6 c 0,2.198699 1.8013016,4 4,4 h 12 c 2.198699,0 4,-1.801301 4,-4 v -6 c 0,-2.1986984 -1.801301,-4 -4,-4 V 5.5 c 0,-1.3688873 -1.131147,-2.5 -2.5,-2.5 z m 0,2 h 7 c 0.287944,0 0.5,0.2120307 0.5,0.5 V 7 h -8 V 5.5 C 8.125,5.2120065 8.3370065,5 8.625,5 Z m -2.5,4 h 12 c 1.125295,0 2,0.874705 2,2 v 6 c 0,1.125295 -0.874705,2 -2,2 h -12 c -1.125295,0 -2,-0.874705 -2,-2 v -6 c 0,-1.125295 0.874705,-2 2,-2 z m 5,2 v 2 h -2 v 2 h 2 v 2 h 2 v -2 h 2 v -2 h -2 v -2 z" />
</svg>
