<svg width="182" height="35" viewBox="0 0 182 35" fill="none" xmlns="http://www.w3.org/2000/svg">
<path d="M38.32 22V7.1H41.32L46.9 14.5H45.5L50.92 7.1H53.92V22H50.82V10.52L52.06 10.8L46.32 18.2H45.92L40.38 10.8L41.42 10.52V22H38.32ZM56.5622 22V7.1H66.5822V9.8H59.6622V13.18H66.1822V15.88H59.6622V19.3H66.5822V22H56.5622ZM68.3395 22V7.1H73.1995C74.8129 7.1 76.2129 7.42 77.3995 8.06C78.5862 8.7 79.5062 9.58 80.1595 10.7C80.8129 11.82 81.1395 13.1 81.1395 14.54C81.1395 15.98 80.8129 17.2667 80.1595 18.4C79.5062 19.52 78.5862 20.4 77.3995 21.04C76.2129 21.68 74.8129 22 73.1995 22H68.3395ZM71.4395 19.3H73.2795C74.2529 19.3 75.0929 19.1067 75.7995 18.72C76.5062 18.32 77.0529 17.7667 77.4395 17.06C77.8395 16.34 78.0395 15.5 78.0395 14.54C78.0395 13.5667 77.8395 12.7267 77.4395 12.02C77.0529 11.3133 76.5062 10.7667 75.7995 10.38C75.0929 9.99333 74.2529 9.8 73.2795 9.8H71.4395V19.3ZM83.1247 22V7.1H86.1247L91.7047 14.5H90.3047L95.7247 7.1H98.7247V22H95.6247V10.52L96.8647 10.8L91.1247 18.2H90.7247L85.1847 10.8L86.2247 10.52V22H83.1247ZM100.267 22L105.307 7.1H109.427L114.467 22H111.087L110.087 18.96H104.627L103.627 22H100.267ZM105.487 16.26H109.227L106.947 9.22H107.787L105.487 16.26ZM116.015 22V7.1H121.735C122.762 7.1 123.669 7.28 124.455 7.64C125.255 8 125.882 8.53333 126.335 9.24C126.789 9.94667 127.015 10.82 127.015 11.86C127.015 12.8733 126.782 13.7333 126.315 14.44C125.862 15.1467 125.235 15.6867 124.435 16.06C123.649 16.42 122.749 16.6 121.735 16.6H119.115V22H116.015ZM119.115 13.9H121.755C122.195 13.9 122.575 13.8133 122.895 13.64C123.215 13.4667 123.462 13.2267 123.635 12.92C123.822 12.6133 123.915 12.26 123.915 11.86C123.915 11.4467 123.822 11.0867 123.635 10.78C123.462 10.4733 123.215 10.2333 122.895 10.06C122.575 9.88667 122.195 9.8 121.755 9.8H119.115V13.9ZM139.677 22.24C138.611 22.24 137.617 22.0467 136.697 21.66C135.791 21.2733 134.997 20.7333 134.317 20.04C133.637 19.3467 133.104 18.5333 132.717 17.6C132.344 16.6667 132.157 15.6467 132.157 14.54C132.157 13.4333 132.344 12.4133 132.717 11.48C133.091 10.5333 133.617 9.72 134.297 9.04C134.977 8.34667 135.771 7.81333 136.677 7.44C137.597 7.05333 138.597 6.86 139.677 6.86C140.757 6.86 141.724 7.04 142.577 7.4C143.444 7.76 144.177 8.24 144.777 8.84C145.377 9.44 145.804 10.1067 146.057 10.84L143.317 12.16C143.064 11.44 142.617 10.8467 141.977 10.38C141.351 9.9 140.584 9.66 139.677 9.66C138.797 9.66 138.024 9.86667 137.357 10.28C136.691 10.6933 136.171 11.2667 135.797 12C135.437 12.72 135.257 13.5667 135.257 14.54C135.257 15.5133 135.437 16.3667 135.797 17.1C136.171 17.8333 136.691 18.4067 137.357 18.82C138.024 19.2333 138.797 19.44 139.677 19.44C140.584 19.44 141.351 19.2067 141.977 18.74C142.617 18.26 143.064 17.66 143.317 16.94L146.057 18.26C145.804 18.9933 145.377 19.66 144.777 20.26C144.177 20.86 143.444 21.34 142.577 21.7C141.724 22.06 140.757 22.24 139.677 22.24ZM151.011 22.24C150.225 22.24 149.545 22.1133 148.971 21.86C148.398 21.6067 147.958 21.2467 147.651 20.78C147.345 20.3 147.191 19.7333 147.191 19.08C147.191 18.4667 147.331 17.9267 147.611 17.46C147.891 16.98 148.318 16.58 148.891 16.26C149.478 15.94 150.205 15.7133 151.071 15.58L154.411 15.04V17.24L151.611 17.74C151.185 17.82 150.858 17.96 150.631 18.16C150.405 18.3467 150.291 18.62 150.291 18.98C150.291 19.3133 150.418 19.5733 150.671 19.76C150.925 19.9467 151.238 20.04 151.611 20.04C152.105 20.04 152.538 19.9333 152.911 19.72C153.285 19.5067 153.571 19.22 153.771 18.86C153.985 18.4867 154.091 18.08 154.091 17.64V14.8C154.091 14.3867 153.925 14.04 153.591 13.76C153.271 13.48 152.831 13.34 152.271 13.34C151.738 13.34 151.265 13.4867 150.851 13.78C150.451 14.0733 150.158 14.46 149.971 14.94L147.571 13.8C147.785 13.1867 148.125 12.66 148.591 12.22C149.058 11.78 149.618 11.44 150.271 11.2C150.925 10.96 151.638 10.84 152.411 10.84C153.331 10.84 154.145 11.0067 154.851 11.34C155.558 11.6733 156.105 12.14 156.491 12.74C156.891 13.3267 157.091 14.0133 157.091 14.8V22H154.291V20.24L154.971 20.12C154.651 20.6 154.298 21 153.911 21.32C153.525 21.6267 153.091 21.8533 152.611 22C152.131 22.16 151.598 22.24 151.011 22.24ZM159.291 22V11.08H162.091V13.7L161.891 13.32C162.131 12.4 162.525 11.78 163.071 11.46C163.631 11.1267 164.291 10.96 165.051 10.96H165.691V13.56H164.751C164.018 13.56 163.425 13.7867 162.971 14.24C162.518 14.68 162.291 15.3067 162.291 16.12V22H159.291ZM172.266 22.24C171.106 22.24 170.1 21.9867 169.246 21.48C168.393 20.96 167.733 20.2667 167.266 19.4C166.8 18.5333 166.566 17.5733 166.566 16.52C166.566 15.4267 166.806 14.4533 167.286 13.6C167.78 12.7467 168.44 12.0733 169.266 11.58C170.093 11.0867 171.026 10.84 172.066 10.84C172.933 10.84 173.7 10.98 174.366 11.26C175.033 11.5267 175.593 11.9067 176.046 12.4C176.513 12.8933 176.866 13.4667 177.106 14.12C177.346 14.76 177.466 15.46 177.466 16.22C177.466 16.4333 177.453 16.6467 177.426 16.86C177.413 17.06 177.38 17.2333 177.326 17.38H169.146V15.18H175.626L174.206 16.22C174.34 15.6467 174.333 15.14 174.186 14.7C174.04 14.2467 173.78 13.8933 173.406 13.64C173.046 13.3733 172.6 13.24 172.066 13.24C171.546 13.24 171.1 13.3667 170.726 13.62C170.353 13.8733 170.073 14.2467 169.886 14.74C169.7 15.2333 169.626 15.8333 169.666 16.54C169.613 17.1533 169.686 17.6933 169.886 18.16C170.086 18.6267 170.393 18.9933 170.806 19.26C171.22 19.5133 171.72 19.64 172.306 19.64C172.84 19.64 173.293 19.5333 173.666 19.32C174.053 19.1067 174.353 18.8133 174.566 18.44L176.966 19.58C176.753 20.1133 176.413 20.58 175.946 20.98C175.493 21.38 174.953 21.6933 174.326 21.92C173.7 22.1333 173.013 22.24 172.266 22.24Z" fill="white"/>
<g filter="url(#filter0_d_4102_5092)">
<path d="M4.125 11.6735C4.125 7.67786 7.16881 4.375 11.005 4.375C12.9854 4.375 14.756 5.26233 16.0002 6.66665C17.2468 5.26198 19.0249 4.375 20.995 4.375C24.8312 4.375 27.875 7.67786 27.875 11.6735C27.875 12.5637 27.7563 13.4699 27.5339 14.375H23.7589L22.3735 12.9896C21.921 12.5372 21.1583 12.6609 20.8721 13.2333L19.5788 15.8199L18.5778 14.8189C18.1681 14.4093 17.4887 14.4655 17.152 14.9369L15.0472 17.8836L13.6668 11.9017C13.4737 11.065 12.3508 10.9066 11.9338 11.6572L9.67172 15.729L8.59119 14.2883C8.24888 13.8318 7.58169 13.7844 7.17828 14.1878L6.36612 15H4.53536C4.26789 13.9322 4.125 12.8205 4.125 11.6735Z" fill="white"/>
<path d="M4.91152 16.25C6.60499 21.0562 10.845 24.8335 15.7784 26.7038C15.9212 26.7579 16.0788 26.7579 16.2216 26.7038C19.4662 25.4738 22.3691 23.1841 24.4624 20.4877C25.6374 18.9742 26.5701 17.3155 27.1614 15.625H23.6294C23.3808 15.625 23.1423 15.5262 22.9665 15.3504L21.7962 14.1801L20.5029 16.7667C20.2167 17.3391 19.454 17.4628 19.0015 17.0104L17.9548 15.9636L15.6615 19.1742C15.1921 19.8314 14.1667 19.627 13.9851 18.8401L12.6316 12.975L10.5304 16.7573C10.2005 17.351 9.36839 17.4079 8.96086 16.8645L7.80738 15.3265L7.15847 15.9754C6.98266 16.1512 6.7442 16.25 6.49556 16.25H4.91152Z" fill="white"/>
</g>
<defs>
<filter id="filter0_d_4102_5092" x="-3" y="0" width="38" height="38" filterUnits="userSpaceOnUse" color-interpolation-filters="sRGB">
<feFlood flood-opacity="0" result="BackgroundImageFix"/>
<feColorMatrix in="SourceAlpha" type="matrix" values="0 0 0 0 0 0 0 0 0 0 0 0 0 0 0 0 0 0 127 0" result="hardAlpha"/>
<feOffset dy="4"/>
<feGaussianBlur stdDeviation="2"/>
<feComposite in2="hardAlpha" operator="out"/>
<feColorMatrix type="matrix" values="0 0 0 0 0 0 0 0 0 0 0 0 0 0 0 0 0 0 0.25 0"/>
<feBlend mode="normal" in2="BackgroundImageFix" result="effect1_dropShadow_4102_5092"/>
<feBlend mode="normal" in="SourceGraphic" in2="effect1_dropShadow_4102_5092" result="shape"/>
</filter>
</defs>
</svg>
